<svg width="28" height="27" viewBox="0 0 28 27" fill="none" xmlns="http://www.w3.org/2000/svg">
<path d="M9 10L8 12L9 14H11L12 12L11 10H9Z" fill="white" fill-opacity="0.05"/>
<path d="M13 13L12 15L13 17H15L16 15L15 13H13Z" fill="white" fill-opacity="0.05"/>
<path d="M13 18L12 20L13 22H15L16 20L15 18H13Z" fill="white" fill-opacity="0.05"/>
<path d="M9 20L8 22L9 24H11L12 22L11 20H9Z" fill="white" fill-opacity="0.05"/>
<path d="M13 23L12 25L13 27H15L16 25L15 23H13Z" fill="white" fill-opacity="0.05"/>
<path d="M17 15L16 17L17 19H19L20 17L19 15H17Z" fill="white" fill-opacity="0.05"/>
<path d="M17 10L16 12L17 14H19L20 12L19 10H17Z" fill="white" fill-opacity="0.05"/>
<path d="M21 7L20 9L21 11H23L24 9L23 7H21Z" fill="white" fill-opacity="0.05"/>
<path d="M13 8L12 10L13 12H15L16 10L15 8H13Z" fill="white" fill-opacity="0.05"/>
<path d="M21 12L20 14L21 16H23L24 14L23 12H21Z" fill="white" fill-opacity="0.05"/>
<path d="M9 15L8 17L9 19H11L12 17L11 15H9Z" fill="white" fill-opacity="0.05"/>
<path d="M5 18L4 20L5 22H7L8 20L7 18H5Z" fill="white" fill-opacity="0.05"/>
<path d="M5 13L4 15L5 17H7L8 15L7 13H5Z" fill="white" fill-opacity="0.05"/>
<path d="M5 8L4 10L5 12H7L8 10L7 8H5Z" fill="white" fill-opacity="0.05"/>
<path d="M1 11L0 13L1 15H3L4 13L3 11H1Z" fill="white" fill-opacity="0.05"/>
<path d="M5 3L4 5L5 7H7L8 5L7 3H5Z" fill="white" fill-opacity="0.05"/>
<path d="M9 5L8 7L9 9H11L12 7L11 5H9Z" fill="white" fill-opacity="0.05"/>
<path d="M13 3L12 5L13 7H15L16 5L15 3H13Z" fill="white" fill-opacity="0.05"/>
<path d="M17 5L16 7L17 9H19L20 7L19 5H17Z" fill="white" fill-opacity="0.05"/>
<path d="M17 0L16 2L17 4H19L20 2L19 0H17Z" fill="white" fill-opacity="0.05"/>
<path d="M25 4L24 6L25 8H27L28 6L27 4H25Z" fill="white" fill-opacity="0.05"/>
<path d="M21 2L20 4L21 6H23L24 4L23 2H21Z" fill="white" fill-opacity="0.05"/>
</svg>
